<svg width="20" height="20" viewBox="0 0 20 20" fill="none" xmlns="http://www.w3.org/2000/svg">
<path d="M9.99999 18.3333C5.39749 18.3333 1.66666 14.6025 1.66666 10C1.66666 5.3975 5.39749 1.66667 9.99999 1.66667C14.6025 1.66667 18.3333 5.3975 18.3333 10C18.3333 14.6025 14.6025 18.3333 9.99999 18.3333ZM8.09166 16.3892C7.2695 14.6453 6.79322 12.7585 6.68916 10.8333H3.38499C3.54715 12.1157 4.07826 13.3235 4.9138 14.3098C5.74934 15.296 6.85333 16.0184 8.09166 16.3892ZM8.35832 10.8333C8.48416 12.8658 9.06499 14.775 9.99999 16.46C10.9603 14.7305 11.5212 12.8079 11.6417 10.8333H8.35832ZM16.615 10.8333H13.3108C13.2068 12.7585 12.7305 14.6453 11.9083 16.3892C13.1466 16.0184 14.2506 15.296 15.0862 14.3098C15.9217 13.3235 16.4528 12.1157 16.615 10.8333ZM3.38499 9.16667H6.68916C6.79322 7.24149 7.2695 5.35474 8.09166 3.61083C6.85333 3.98157 5.74934 4.70396 4.9138 5.69025C4.07826 6.67653 3.54715 7.88425 3.38499 9.16667ZM8.35916 9.16667H11.6408C11.5206 7.19217 10.96 5.26961 9.99999 3.54C9.03972 5.26954 8.47879 7.1921 8.35832 9.16667H8.35916ZM11.9083 3.61083C12.7305 5.35474 13.2068 7.24149 13.3108 9.16667H16.615C16.4528 7.88425 15.9217 6.67653 15.0862 5.69025C14.2506 4.70396 13.1466 3.98157 11.9083 3.61083Z" fill="#14151A"/>
</svg>
